<mxfile host="app.diagrams.net" modified="2021-12-13T00:32:24.745Z" agent="5.0 (X11; Linux x86_64) AppleWebKit/537.36 (KHTML, like Gecko) Chrome/96.0.4664.93 Safari/537.36" etag="3dxuq5dSQudb3hJdDHOh" version="15.9.4" type="github">
  <diagram name="Page-1" id="6133507b-19e7-1e82-6fc7-422aa6c4b21f">
    <mxGraphModel dx="1133" dy="591" grid="1" gridSize="10" guides="1" tooltips="1" connect="1" arrows="1" fold="1" page="1" pageScale="1" pageWidth="1100" pageHeight="850" background="none" math="0" shadow="0">
      <root>
        <mxCell id="0" />
        <mxCell id="1" parent="0" />
        <mxCell id="wq583IikxgX2pXay-S-y-5" value="Article" style="swimlane;fontStyle=0;childLayout=stackLayout;horizontal=1;startSize=30;fillColor=none;horizontalStack=0;resizeParent=1;resizeParentMax=0;resizeLast=0;collapsible=1;marginBottom=0;" vertex="1" parent="1">
          <mxGeometry x="329" y="240" width="140" height="212" as="geometry" />
        </mxCell>
        <mxCell id="wq583IikxgX2pXay-S-y-6" value="+ Title: charfield" style="text;strokeColor=none;fillColor=none;align=left;verticalAlign=top;spacingLeft=4;spacingRight=4;overflow=hidden;rotatable=0;points=[[0,0.5],[1,0.5]];portConstraint=eastwest;" vertex="1" parent="wq583IikxgX2pXay-S-y-5">
          <mxGeometry y="30" width="140" height="26" as="geometry" />
        </mxCell>
        <mxCell id="wq583IikxgX2pXay-S-y-7" value="+ Author: charfield" style="text;strokeColor=none;fillColor=none;align=left;verticalAlign=top;spacingLeft=4;spacingRight=4;overflow=hidden;rotatable=0;points=[[0,0.5],[1,0.5]];portConstraint=eastwest;" vertex="1" parent="wq583IikxgX2pXay-S-y-5">
          <mxGeometry y="56" width="140" height="26" as="geometry" />
        </mxCell>
        <mxCell id="wq583IikxgX2pXay-S-y-10" value="+ Category: charfield" style="text;strokeColor=none;fillColor=none;align=left;verticalAlign=top;spacingLeft=4;spacingRight=4;overflow=hidden;rotatable=0;points=[[0,0.5],[1,0.5]];portConstraint=eastwest;" vertex="1" parent="wq583IikxgX2pXay-S-y-5">
          <mxGeometry y="82" width="140" height="26" as="geometry" />
        </mxCell>
        <mxCell id="wq583IikxgX2pXay-S-y-11" value="+ Summary: textfield" style="text;strokeColor=none;fillColor=none;align=left;verticalAlign=top;spacingLeft=4;spacingRight=4;overflow=hidden;rotatable=0;points=[[0,0.5],[1,0.5]];portConstraint=eastwest;" vertex="1" parent="wq583IikxgX2pXay-S-y-5">
          <mxGeometry y="108" width="140" height="26" as="geometry" />
        </mxCell>
        <mxCell id="wq583IikxgX2pXay-S-y-8" value="+ Date: datefield&#xa;" style="text;strokeColor=none;fillColor=none;align=left;verticalAlign=top;spacingLeft=4;spacingRight=4;overflow=hidden;rotatable=0;points=[[0,0.5],[1,0.5]];portConstraint=eastwest;" vertex="1" parent="wq583IikxgX2pXay-S-y-5">
          <mxGeometry y="134" width="140" height="26" as="geometry" />
        </mxCell>
        <mxCell id="wq583IikxgX2pXay-S-y-12" value="+ Image: imageField&#xa;" style="text;strokeColor=none;fillColor=none;align=left;verticalAlign=top;spacingLeft=4;spacingRight=4;overflow=hidden;rotatable=0;points=[[0,0.5],[1,0.5]];portConstraint=eastwest;" vertex="1" parent="wq583IikxgX2pXay-S-y-5">
          <mxGeometry y="160" width="140" height="26" as="geometry" />
        </mxCell>
        <mxCell id="wq583IikxgX2pXay-S-y-13" value="+ content: textfield" style="text;strokeColor=none;fillColor=none;align=left;verticalAlign=top;spacingLeft=4;spacingRight=4;overflow=hidden;rotatable=0;points=[[0,0.5],[1,0.5]];portConstraint=eastwest;" vertex="1" parent="wq583IikxgX2pXay-S-y-5">
          <mxGeometry y="186" width="140" height="26" as="geometry" />
        </mxCell>
        <mxCell id="wq583IikxgX2pXay-S-y-35" style="edgeStyle=orthogonalEdgeStyle;rounded=0;orthogonalLoop=1;jettySize=auto;html=1;exitX=0;exitY=0.25;exitDx=0;exitDy=0;" edge="1" parent="1" source="wq583IikxgX2pXay-S-y-14" target="wq583IikxgX2pXay-S-y-7">
          <mxGeometry relative="1" as="geometry" />
        </mxCell>
        <mxCell id="wq583IikxgX2pXay-S-y-14" value="Author" style="swimlane;fontStyle=0;childLayout=stackLayout;horizontal=1;startSize=30;fillColor=none;horizontalStack=0;resizeParent=1;resizeParentMax=0;resizeLast=0;collapsible=1;marginBottom=0;" vertex="1" parent="1">
          <mxGeometry x="552" y="39" width="140" height="82" as="geometry" />
        </mxCell>
        <mxCell id="wq583IikxgX2pXay-S-y-15" value="+ First name: charfield" style="text;strokeColor=none;fillColor=none;align=left;verticalAlign=top;spacingLeft=4;spacingRight=4;overflow=hidden;rotatable=0;points=[[0,0.5],[1,0.5]];portConstraint=eastwest;" vertex="1" parent="wq583IikxgX2pXay-S-y-14">
          <mxGeometry y="30" width="140" height="26" as="geometry" />
        </mxCell>
        <mxCell id="wq583IikxgX2pXay-S-y-16" value="+ Last name: charfield" style="text;strokeColor=none;fillColor=none;align=left;verticalAlign=top;spacingLeft=4;spacingRight=4;overflow=hidden;rotatable=0;points=[[0,0.5],[1,0.5]];portConstraint=eastwest;" vertex="1" parent="wq583IikxgX2pXay-S-y-14">
          <mxGeometry y="56" width="140" height="26" as="geometry" />
        </mxCell>
        <mxCell id="wq583IikxgX2pXay-S-y-36" style="edgeStyle=orthogonalEdgeStyle;rounded=0;orthogonalLoop=1;jettySize=auto;html=1;exitX=0;exitY=0.5;exitDx=0;exitDy=0;entryX=1.014;entryY=0.756;entryDx=0;entryDy=0;entryPerimeter=0;" edge="1" parent="1" source="wq583IikxgX2pXay-S-y-24" target="wq583IikxgX2pXay-S-y-13">
          <mxGeometry relative="1" as="geometry" />
        </mxCell>
        <mxCell id="wq583IikxgX2pXay-S-y-22" value="Content" style="swimlane;fontStyle=0;childLayout=stackLayout;horizontal=1;startSize=30;fillColor=none;horizontalStack=0;resizeParent=1;resizeParentMax=0;resizeLast=0;collapsible=1;marginBottom=0;" vertex="1" parent="1">
          <mxGeometry x="559" y="320" width="140" height="82" as="geometry" />
        </mxCell>
        <mxCell id="wq583IikxgX2pXay-S-y-23" value="+ Summary: textfield" style="text;strokeColor=none;fillColor=none;align=left;verticalAlign=top;spacingLeft=4;spacingRight=4;overflow=hidden;rotatable=0;points=[[0,0.5],[1,0.5]];portConstraint=eastwest;" vertex="1" parent="wq583IikxgX2pXay-S-y-22">
          <mxGeometry y="30" width="140" height="26" as="geometry" />
        </mxCell>
        <mxCell id="wq583IikxgX2pXay-S-y-24" value="+ content: textfield" style="text;strokeColor=none;fillColor=none;align=left;verticalAlign=top;spacingLeft=4;spacingRight=4;overflow=hidden;rotatable=0;points=[[0,0.5],[1,0.5]];portConstraint=eastwest;" vertex="1" parent="wq583IikxgX2pXay-S-y-22">
          <mxGeometry y="56" width="140" height="26" as="geometry" />
        </mxCell>
        <mxCell id="wq583IikxgX2pXay-S-y-37" style="edgeStyle=orthogonalEdgeStyle;rounded=0;orthogonalLoop=1;jettySize=auto;html=1;exitX=0;exitY=0.25;exitDx=0;exitDy=0;entryX=1;entryY=0.5;entryDx=0;entryDy=0;" edge="1" parent="1" source="wq583IikxgX2pXay-S-y-25" target="wq583IikxgX2pXay-S-y-10">
          <mxGeometry relative="1" as="geometry" />
        </mxCell>
        <mxCell id="wq583IikxgX2pXay-S-y-25" value="Category" style="swimlane;fontStyle=0;childLayout=stackLayout;horizontal=1;startSize=30;fillColor=none;horizontalStack=0;resizeParent=1;resizeParentMax=0;resizeLast=0;collapsible=1;marginBottom=0;" vertex="1" parent="1">
          <mxGeometry x="559" y="190" width="177" height="56" as="geometry">
            <mxRectangle x="263" y="279" width="80" height="30" as="alternateBounds" />
          </mxGeometry>
        </mxCell>
        <mxCell id="wq583IikxgX2pXay-S-y-26" value="+ category_name: charfield" style="text;strokeColor=none;fillColor=none;align=left;verticalAlign=top;spacingLeft=4;spacingRight=4;overflow=hidden;rotatable=0;points=[[0,0.5],[1,0.5]];portConstraint=eastwest;" vertex="1" parent="wq583IikxgX2pXay-S-y-25">
          <mxGeometry y="30" width="177" height="26" as="geometry" />
        </mxCell>
        <mxCell id="wq583IikxgX2pXay-S-y-28" value="Summary (card)" style="swimlane;fontStyle=0;childLayout=stackLayout;horizontal=1;startSize=30;fillColor=none;horizontalStack=0;resizeParent=1;resizeParentMax=0;resizeLast=0;collapsible=1;marginBottom=0;" vertex="1" parent="1">
          <mxGeometry x="60" y="50" width="177" height="160" as="geometry">
            <mxRectangle x="263" y="279" width="80" height="30" as="alternateBounds" />
          </mxGeometry>
        </mxCell>
        <mxCell id="wq583IikxgX2pXay-S-y-29" value="+ category: charfield" style="text;strokeColor=none;fillColor=none;align=left;verticalAlign=top;spacingLeft=4;spacingRight=4;overflow=hidden;rotatable=0;points=[[0,0.5],[1,0.5]];portConstraint=eastwest;" vertex="1" parent="wq583IikxgX2pXay-S-y-28">
          <mxGeometry y="30" width="177" height="26" as="geometry" />
        </mxCell>
        <mxCell id="wq583IikxgX2pXay-S-y-30" value="+ title" style="text;strokeColor=none;fillColor=none;align=left;verticalAlign=top;spacingLeft=4;spacingRight=4;overflow=hidden;rotatable=0;points=[[0,0.5],[1,0.5]];portConstraint=eastwest;" vertex="1" parent="wq583IikxgX2pXay-S-y-28">
          <mxGeometry y="56" width="177" height="26" as="geometry" />
        </mxCell>
        <mxCell id="wq583IikxgX2pXay-S-y-31" value="+ Date" style="text;strokeColor=none;fillColor=none;align=left;verticalAlign=top;spacingLeft=4;spacingRight=4;overflow=hidden;rotatable=0;points=[[0,0.5],[1,0.5]];portConstraint=eastwest;" vertex="1" parent="wq583IikxgX2pXay-S-y-28">
          <mxGeometry y="82" width="177" height="26" as="geometry" />
        </mxCell>
        <mxCell id="wq583IikxgX2pXay-S-y-32" value="+ Summary" style="text;strokeColor=none;fillColor=none;align=left;verticalAlign=top;spacingLeft=4;spacingRight=4;overflow=hidden;rotatable=0;points=[[0,0.5],[1,0.5]];portConstraint=eastwest;" vertex="1" parent="wq583IikxgX2pXay-S-y-28">
          <mxGeometry y="108" width="177" height="26" as="geometry" />
        </mxCell>
        <mxCell id="wq583IikxgX2pXay-S-y-33" value="+ Author" style="text;strokeColor=none;fillColor=none;align=left;verticalAlign=top;spacingLeft=4;spacingRight=4;overflow=hidden;rotatable=0;points=[[0,0.5],[1,0.5]];portConstraint=eastwest;" vertex="1" parent="wq583IikxgX2pXay-S-y-28">
          <mxGeometry y="134" width="177" height="26" as="geometry" />
        </mxCell>
        <mxCell id="wq583IikxgX2pXay-S-y-39" style="edgeStyle=orthogonalEdgeStyle;rounded=0;orthogonalLoop=1;jettySize=auto;html=1;exitX=0;exitY=0.5;exitDx=0;exitDy=0;entryX=1;entryY=0.5;entryDx=0;entryDy=0;" edge="1" parent="1" source="wq583IikxgX2pXay-S-y-23" target="wq583IikxgX2pXay-S-y-11">
          <mxGeometry relative="1" as="geometry" />
        </mxCell>
        <mxCell id="wq583IikxgX2pXay-S-y-40" style="edgeStyle=orthogonalEdgeStyle;rounded=0;orthogonalLoop=1;jettySize=auto;html=1;exitX=0;exitY=0.5;exitDx=0;exitDy=0;entryX=1;entryY=0.5;entryDx=0;entryDy=0;" edge="1" parent="1" source="wq583IikxgX2pXay-S-y-8" target="wq583IikxgX2pXay-S-y-31">
          <mxGeometry relative="1" as="geometry">
            <Array as="points">
              <mxPoint x="270" y="387" />
              <mxPoint x="270" y="145" />
            </Array>
          </mxGeometry>
        </mxCell>
        <mxCell id="wq583IikxgX2pXay-S-y-41" style="edgeStyle=orthogonalEdgeStyle;rounded=0;orthogonalLoop=1;jettySize=auto;html=1;exitX=0;exitY=0.5;exitDx=0;exitDy=0;entryX=1;entryY=0.5;entryDx=0;entryDy=0;" edge="1" parent="1" source="wq583IikxgX2pXay-S-y-6" target="wq583IikxgX2pXay-S-y-30">
          <mxGeometry relative="1" as="geometry" />
        </mxCell>
        <mxCell id="wq583IikxgX2pXay-S-y-42" style="edgeStyle=orthogonalEdgeStyle;rounded=0;orthogonalLoop=1;jettySize=auto;html=1;exitX=0;exitY=0.5;exitDx=0;exitDy=0;entryX=1;entryY=0.5;entryDx=0;entryDy=0;" edge="1" parent="1" source="wq583IikxgX2pXay-S-y-10" target="wq583IikxgX2pXay-S-y-29">
          <mxGeometry relative="1" as="geometry">
            <Array as="points">
              <mxPoint x="310" y="335" />
              <mxPoint x="310" y="93" />
            </Array>
          </mxGeometry>
        </mxCell>
        <mxCell id="wq583IikxgX2pXay-S-y-43" style="edgeStyle=orthogonalEdgeStyle;rounded=0;orthogonalLoop=1;jettySize=auto;html=1;exitX=0;exitY=0.5;exitDx=0;exitDy=0;entryX=0;entryY=0.5;entryDx=0;entryDy=0;" edge="1" parent="1" source="wq583IikxgX2pXay-S-y-11" target="wq583IikxgX2pXay-S-y-32">
          <mxGeometry relative="1" as="geometry">
            <Array as="points">
              <mxPoint x="10" y="361" />
              <mxPoint x="10" y="171" />
            </Array>
          </mxGeometry>
        </mxCell>
        <mxCell id="wq583IikxgX2pXay-S-y-44" style="edgeStyle=orthogonalEdgeStyle;rounded=0;orthogonalLoop=1;jettySize=auto;html=1;exitX=0;exitY=0.5;exitDx=0;exitDy=0;entryX=0;entryY=0.5;entryDx=0;entryDy=0;" edge="1" parent="1" source="wq583IikxgX2pXay-S-y-7" target="wq583IikxgX2pXay-S-y-33">
          <mxGeometry relative="1" as="geometry" />
        </mxCell>
      </root>
    </mxGraphModel>
  </diagram>
</mxfile>
